<svg width="25" height="24" viewBox="0 0 25 24" fill="none" xmlns="http://www.w3.org/2000/svg">
<path d="M13.0067 2.26003C16.294 2.26003 16.4995 2.26003 17.9377 2.26003C19.1704 2.26003 19.7868 2.46548 20.1977 2.67094C20.6086 2.8764 21.0195 3.08185 21.4305 3.49277C21.8414 3.90368 22.0468 4.3146 22.2523 4.93097C22.4577 5.34188 22.6632 5.95825 22.6632 7.19099C22.6632 8.42373 22.6632 8.83465 22.6632 12.122C22.6632 15.4093 22.6632 15.6147 22.6632 17.0529C22.6632 18.2857 22.4577 18.902 22.2523 19.313C22.0468 19.7239 21.8414 20.1348 21.4305 20.5457C21.0195 20.9566 20.6086 21.1621 19.9923 21.3675C19.5813 21.573 18.965 21.7784 17.7322 21.7784C16.4995 21.7784 16.0886 21.7784 12.8013 21.7784C9.51396 21.7784 9.3085 21.7784 7.8703 21.7784C6.63756 21.7784 6.02119 21.573 5.61027 21.3675C4.9939 21.1621 4.58299 20.9566 4.17208 20.5457C3.96662 20.1348 3.76116 19.7239 3.55571 19.1075C3.35025 18.6966 3.14479 18.0802 3.14479 16.8475C3.14479 15.6147 3.14479 15.2038 3.14479 11.9165C3.14479 8.62919 3.14479 8.42373 3.14479 6.98554C3.14479 5.75279 3.35025 5.13642 3.55571 4.72551C3.76116 4.10914 3.96662 3.69822 4.37753 3.28731C4.78845 2.8764 5.19936 2.67094 5.81573 2.46548C6.22665 2.26003 6.84302 2.05457 8.07576 2.05457C9.3085 2.26003 9.71941 2.26003 13.0067 2.26003ZM13.0067 0C9.71941 0 9.3085 0 7.8703 0C6.63756 0 5.81573 0.205457 4.9939 0.616371C4.17208 1.02728 3.55571 1.4382 2.93933 2.05457C2.32296 2.67094 1.91205 3.28731 1.50114 4.10914C1.29568 4.93097 1.09022 5.75279 0.884766 6.98554C0.884766 8.21828 0.884766 8.62919 0.884766 11.9165C0.884766 15.2038 0.884766 15.6147 0.884766 16.8475C0.884766 18.0802 1.09022 18.902 1.50114 19.7239C1.70659 20.5457 2.11751 21.1621 2.93933 21.7784C3.55571 22.3948 4.37753 22.8057 4.9939 23.2166C5.81573 23.4221 6.63756 23.6275 7.8703 23.833C9.10304 23.833 9.51396 23.833 12.8013 23.833C16.0886 23.833 16.4995 23.833 17.7322 23.833C18.965 23.833 19.7868 23.6275 20.6086 23.2166C21.4305 23.0112 22.0468 22.6003 22.6632 21.7784C23.2796 21.1621 23.6905 20.3402 24.1014 19.7239C24.3069 18.902 24.5123 18.0802 24.7178 16.8475C24.7178 15.6147 24.7178 15.2038 24.7178 11.9165C24.7178 8.62919 24.7178 8.21828 24.7178 6.98554C24.7178 5.75279 24.5123 4.93097 24.1014 4.10914C23.8959 3.28731 23.485 2.67094 22.6632 2.05457C22.0468 1.4382 21.225 1.02728 20.6086 0.616371C19.9923 0.410914 19.1704 0.205457 17.9377 0C16.4995 0 16.0886 0 13.0067 0Z" fill="white"/>
<path d="M13.0067 5.75263C9.51396 5.75263 6.84302 8.42357 6.84302 11.9163C6.84302 15.4091 9.51396 18.0801 13.0067 18.0801C16.4995 18.0801 19.1704 15.4091 19.1704 11.9163C19.1704 8.42357 16.294 5.75263 13.0067 5.75263ZM13.0067 16.0255C10.7467 16.0255 8.89759 14.1764 8.89759 12.1218C8.89759 9.86177 10.7467 8.01266 13.0067 8.01266C15.2668 8.01266 17.1159 9.86177 17.1159 12.1218C16.9104 14.1764 15.0613 16.0255 13.0067 16.0255Z" fill="white"/>
<path d="M19.3759 6.98557C20.1702 6.98557 20.8141 6.34167 20.8141 5.54737C20.8141 4.75308 20.1702 4.10917 19.3759 4.10917C18.5816 4.10917 17.9377 4.75308 17.9377 5.54737C17.9377 6.34167 18.5816 6.98557 19.3759 6.98557Z" fill="white"/>
</svg>
