<svg width="197" height="69" viewBox="0 0 197 69" fill="none" xmlns="http://www.w3.org/2000/svg">
<path d="M10.225 19.3C7.14167 19.3 4.80833 18.4667 3.225 16.8C1.675 15.2333 0.9 13.025 0.9 10.175V9.975C0.9 7.25833 1.76667 5.05 3.5 3.35C5.2 1.68333 7.375 0.85 10.025 0.85C12.375 0.85 14.2917 1.4 15.775 2.5C17.275 3.68333 18.125 5.425 18.325 7.725H13.05C12.85 5.84167 11.85 4.9 10.05 4.9C8.88333 4.9 7.96667 5.34167 7.3 6.225C6.63333 7.09167 6.3 8.33333 6.3 9.95V10.15C6.3 11.7667 6.625 13.0167 7.275 13.9C7.94167 14.7667 8.89167 15.2 10.125 15.2C12.075 15.2 13.1833 14.225 13.45 12.275H18.55C18.3833 14.5083 17.5333 16.2583 16 17.525C14.5167 18.7083 12.5917 19.3 10.225 19.3ZM23.9756 5.075H19.3506V1.125H33.7506V5.075H29.1256V19H23.9756V5.075ZM40.8699 13.925C41.6199 14.825 42.6283 15.275 43.8949 15.275C45.1616 15.275 46.1616 14.8167 46.8949 13.9C47.6283 12.9833 47.9949 11.725 47.9949 10.125V9.925C47.9949 8.34167 47.6199 7.10833 46.8699 6.225C46.1366 5.325 45.1366 4.875 43.8699 4.875C42.5866 4.875 41.5783 5.31667 40.8449 6.2C40.1283 7.08333 39.7699 8.33333 39.7699 9.95V10.15C39.7699 11.7667 40.1366 13.025 40.8699 13.925ZM43.7949 19.3C40.9616 19.3 38.6783 18.45 36.9449 16.75C35.2616 15.1 34.4199 12.9083 34.4199 10.175V9.975C34.4199 7.29167 35.3283 5.09167 37.1449 3.375C38.9116 1.70833 41.1533 0.874999 43.8699 0.874999C46.6199 0.874999 48.8866 1.675 50.6699 3.275C52.4533 4.95833 53.3449 7.15 53.3449 9.85V10.05C53.3449 12.85 52.4783 15.075 50.7449 16.725C48.9783 18.4417 46.6616 19.3 43.7949 19.3ZM66.5283 5.125H60.9033V19H55.7533V1.125H71.6533V19H66.5283V5.125Z" fill="#EE3F58"/>
<path d="M1.825 26.125H6.975V32.95H12.85V26.125H17.975V44H12.85V36.95H6.975V44H1.825V26.125ZM21.4295 26.125H33.7795V30.075H26.5295V33.15H32.3045V36.8H26.5295V40.05H34.1795V44H21.4295V26.125ZM42.6371 37.225C42.3538 39.575 41.7871 41.35 40.9371 42.55C40.1038 43.7333 38.8121 44.325 37.0621 44.325C36.8788 44.325 36.6954 44.3083 36.5121 44.275C36.3288 44.2583 36.1704 44.2333 36.0371 44.2C35.9204 44.1833 35.8121 44.1583 35.7121 44.125C35.6121 44.0917 35.5371 44.0667 35.4871 44.05L35.4121 44V40.025C35.4121 40.0417 35.4538 40.0583 35.5371 40.075C35.6704 40.1083 35.8121 40.125 35.9621 40.125C36.5788 40.125 37.0621 39.775 37.4121 39.075C37.7621 38.375 38.0121 37.325 38.1621 35.925C38.3288 34.6583 38.4121 31.3917 38.4121 26.125H52.0371V44H46.9121V30.125H43.0371C42.9371 33.575 42.8038 35.9417 42.6371 37.225ZM55.5848 26.125H67.9348V30.075H60.6848V33.15H66.4598V36.8H60.6848V40.05H68.3348V44H55.5848V26.125ZM70.7924 26.125H82.6174V30.1H75.9424V44H70.7924V26.125ZM87.815 26.125H94.44L100.115 44H94.69L93.74 40.675H87.815L86.865 44H82.09L87.815 26.125ZM88.815 37.15H92.74L90.79 30.275L88.815 37.15ZM108.067 37.225C107.783 39.575 107.217 41.35 106.367 42.55C105.533 43.7333 104.242 44.325 102.492 44.325C102.308 44.325 102.125 44.3083 101.942 44.275C101.758 44.2583 101.6 44.2333 101.467 44.2C101.35 44.1833 101.242 44.1583 101.142 44.125C101.042 44.0917 100.967 44.0667 100.917 44.05L100.842 44V40.025C100.842 40.0417 100.883 40.0583 100.967 40.075C101.1 40.1083 101.242 40.125 101.392 40.125C102.008 40.125 102.492 39.775 102.842 39.075C103.192 38.375 103.442 37.325 103.592 35.925C103.758 34.6583 103.842 31.3917 103.842 26.125H117.467V44H112.342V30.125H108.467C108.367 33.575 108.233 35.9417 108.067 37.225ZM120.914 26.125H126.014V32.15H127.939C130.189 32.15 131.906 32.6417 133.089 33.625C134.289 34.6083 134.889 36.0417 134.889 37.925V38.025C134.889 39.9583 134.298 41.4417 133.114 42.475C131.931 43.4917 130.131 44 127.714 44H120.914V26.125ZM127.514 40.15C129.181 40.15 130.014 39.4333 130.014 38V37.9C130.014 36.4 129.173 35.65 127.489 35.65H126.014V40.15H127.514ZM137.323 26.125H142.473V32.95H148.348V26.125H153.473V44H148.348V36.95H142.473V44H137.323V26.125ZM176.928 44H171.828V26.125H176.928V44ZM156.828 26.125H161.928V32.15H163.603C165.853 32.15 167.569 32.6417 168.753 33.625C169.953 34.6083 170.553 36.0417 170.553 37.925V38.025C170.553 39.9583 169.961 41.4417 168.778 42.475C167.594 43.4917 165.794 44 163.378 44H156.828V26.125ZM163.178 40.15C164.844 40.15 165.678 39.4333 165.678 38V37.9C165.678 36.4 164.836 35.65 163.153 35.65H161.928V40.15H163.178ZM188.562 25.2C187.279 25.2 186.287 24.8667 185.587 24.2C184.904 23.5333 184.52 22.5917 184.437 21.375H187.462C187.545 22.225 187.912 22.65 188.562 22.65C189.229 22.65 189.62 22.225 189.737 21.375H192.737C192.637 22.5917 192.22 23.5333 191.487 24.2C190.77 24.8667 189.795 25.2 188.562 25.2ZM180.387 44V26.125H185.537V37.25L191.787 26.125H196.912V44H191.787V32.7L185.537 44H180.387ZM5.25 55.075H0.625V51.125H15.025V55.075H10.4V69H5.25V55.075ZM19.9684 51.125H26.5934L32.2684 69H26.8434L25.8934 65.675H19.9684L19.0184 69H14.2434L19.9684 51.125ZM20.9684 62.15H24.8934L22.9434 55.275L20.9684 62.15ZM48.1951 63.25C48.1951 65.0833 47.5951 66.5 46.3951 67.5C45.2118 68.5 43.4201 69 41.0201 69H34.2201V51.125H46.5201V55.075H39.3451L39.3201 57.65H41.2451C43.4951 57.65 45.2118 58.125 46.3951 59.075C47.5951 60.0083 48.1951 61.3667 48.1951 63.15V63.25ZM40.8201 65.15C42.4868 65.15 43.3201 64.5083 43.3201 63.225V63.125C43.3201 61.8083 42.4785 61.15 40.7951 61.15H39.3201V65.15H40.8201ZM54.4898 51.125H61.1148L66.7898 69H61.3648L60.4148 65.675H54.4898L53.5398 69H48.7648L54.4898 51.125ZM55.4898 62.15H59.4148L57.4648 55.275L55.4898 62.15ZM68.8416 51.125H73.9916V58.2L79.3666 51.125H84.7166L78.1666 59.425L85.0666 69H79.1416L73.9916 61.525V69H68.8416V51.125Z" fill="black"/>
</svg>
