<svg width="205" height="71" viewBox="0 0 205 71" fill="none" xmlns="http://www.w3.org/2000/svg">
<path d="M10.634 19.312C7.42733 19.312 5.00067 18.4453 3.354 16.712C1.742 15.0827 0.936 12.786 0.936 9.822V9.614C0.936 6.78867 1.83733 4.492 3.64 2.724C5.408 0.990666 7.67 0.124 10.426 0.124C12.87 0.124 14.8633 0.696 16.406 1.84C17.966 3.07067 18.85 4.882 19.058 7.274H13.572C13.364 5.31533 12.324 4.336 10.452 4.336C9.23867 4.336 8.28533 4.79533 7.592 5.714C6.89867 6.61533 6.552 7.90667 6.552 9.588V9.796C6.552 11.4773 6.89 12.7773 7.566 13.696C8.25933 14.5973 9.24733 15.048 10.53 15.048C12.558 15.048 13.7107 14.034 13.988 12.006H19.292C19.1187 14.3287 18.2347 16.1487 16.64 17.466C15.0973 18.6967 13.0953 19.312 10.634 19.312ZM24.9346 4.518H20.1246V0.409999H35.1006V4.518H30.2906V19H24.9346V4.518ZM42.5047 13.722C43.2847 14.658 44.3334 15.126 45.6507 15.126C46.9681 15.126 48.0081 14.6493 48.7707 13.696C49.5334 12.7427 49.9147 11.434 49.9147 9.77V9.562C49.9147 7.91533 49.5247 6.63267 48.7447 5.714C47.9821 4.778 46.9421 4.31 45.6247 4.31C44.2901 4.31 43.2414 4.76933 42.4787 5.688C41.7334 6.60667 41.3607 7.90667 41.3607 9.588V9.796C41.3607 11.4773 41.7421 12.786 42.5047 13.722ZM45.5467 19.312C42.6001 19.312 40.2254 18.428 38.4227 16.66C36.6721 14.944 35.7967 12.6647 35.7967 9.822V9.614C35.7967 6.82333 36.7414 4.53533 38.6307 2.75C40.4681 1.01667 42.7994 0.149999 45.6247 0.149999C48.4847 0.149999 50.8421 0.982 52.6967 2.646C54.5514 4.39667 55.4787 6.676 55.4787 9.484V9.692C55.4787 12.604 54.5774 14.918 52.7747 16.634C50.9374 18.4193 48.5281 19.312 45.5467 19.312ZM69.1895 4.57H63.3395V19H57.9835V0.409999H74.5195V19H69.1895V4.57Z" fill="#EE3F58"/>
<path d="M1.898 26.41H7.254V33.508H13.364V26.41H18.694V45H13.364V37.668H7.254V45H1.898V26.41ZM22.2867 26.41H35.1307V30.518H27.5907V33.716H33.5967V37.512H27.5907V40.892H35.5467V45H22.2867V26.41ZM44.3426 37.954C44.0479 40.398 43.4586 42.244 42.5746 43.492C41.7079 44.7227 40.3646 45.338 38.5446 45.338C38.3539 45.338 38.1633 45.3207 37.9726 45.286C37.7819 45.2687 37.6173 45.2427 37.4786 45.208C37.3573 45.1907 37.2446 45.1647 37.1406 45.13C37.0366 45.0953 36.9586 45.0693 36.9066 45.052L36.8286 45V40.866C36.8286 40.8833 36.8719 40.9007 36.9586 40.918C37.0973 40.9527 37.2446 40.97 37.4006 40.97C38.0419 40.97 38.5446 40.606 38.9086 39.878C39.2726 39.15 39.5326 38.058 39.6886 36.602C39.8619 35.2847 39.9486 31.8873 39.9486 26.41H54.1186V45H48.7886V30.57H44.7586C44.6546 34.158 44.5159 36.6193 44.3426 37.954ZM57.8082 26.41H70.6522V30.518H63.1122V33.716H69.1182V37.512H63.1122V40.892H71.0682V45H57.8082V26.41ZM73.6241 26.41H85.9221V30.544H78.9801V45H73.6241V26.41ZM91.3276 26.41H98.2176L104.12 45H98.4776L97.4896 41.542H91.3276L90.3396 45H85.3736L91.3276 26.41ZM92.3676 37.876H96.4496L94.4216 30.726L92.3676 37.876ZM112.389 37.954C112.095 40.398 111.505 42.244 110.621 43.492C109.755 44.7227 108.411 45.338 106.591 45.338C106.401 45.338 106.21 45.3207 106.019 45.286C105.829 45.2687 105.664 45.2427 105.525 45.208C105.404 45.1907 105.291 45.1647 105.187 45.13C105.083 45.0953 105.005 45.0693 104.953 45.052L104.875 45V40.866C104.875 40.8833 104.919 40.9007 105.005 40.918C105.144 40.9527 105.291 40.97 105.447 40.97C106.089 40.97 106.591 40.606 106.955 39.878C107.319 39.15 107.579 38.058 107.735 36.602C107.909 35.2847 107.995 31.8873 107.995 26.41H122.165V45H116.835V30.57H112.805C112.701 34.158 112.563 36.6193 112.389 37.954ZM125.751 26.41H131.055V32.676H133.057C135.397 32.676 137.182 33.1873 138.413 34.21C139.661 35.2327 140.285 36.7233 140.285 38.682V38.786C140.285 40.7967 139.67 42.3393 138.439 43.414C137.208 44.4713 135.336 45 132.823 45H125.751V26.41ZM132.615 40.996C134.348 40.996 135.215 40.2507 135.215 38.76V38.656C135.215 37.096 134.34 36.316 132.589 36.316H131.055V40.996H132.615ZM142.816 26.41H148.172V33.508H154.282V26.41H159.612V45H154.282V37.668H148.172V45H142.816V26.41ZM184.005 45H178.701V26.41H184.005V45ZM163.101 26.41H168.405V32.676H170.147C172.487 32.676 174.272 33.1873 175.503 34.21C176.751 35.2327 177.375 36.7233 177.375 38.682V38.786C177.375 40.7967 176.759 42.3393 175.529 43.414C174.298 44.4713 172.426 45 169.913 45H163.101V26.41ZM169.705 40.996C171.438 40.996 172.305 40.2507 172.305 38.76V38.656C172.305 37.096 171.429 36.316 169.679 36.316H168.405V40.996H169.705ZM196.105 25.448C194.77 25.448 193.739 25.1013 193.011 24.408C192.3 23.7147 191.901 22.7353 191.815 21.47H194.961C195.047 22.354 195.429 22.796 196.105 22.796C196.798 22.796 197.205 22.354 197.327 21.47H200.447C200.343 22.7353 199.909 23.7147 199.147 24.408C198.401 25.1013 197.387 25.448 196.105 25.448ZM187.603 45V26.41H192.959V37.98L199.459 26.41H204.789V45H199.459V33.248L192.959 45H187.603ZM5.46 56.518H0.65V52.41H15.626V56.518H10.816V71H5.46V56.518ZM20.7671 52.41H27.6571L33.5591 71H27.9171L26.9291 67.542H20.7671L19.7791 71H14.8131L20.7671 52.41ZM21.8071 63.876H25.8891L23.8611 56.726L21.8071 63.876ZM50.1229 65.02C50.1229 66.9267 49.4989 68.4 48.2509 69.44C47.0203 70.48 45.1569 71 42.6609 71H35.5889V52.41H48.3809V56.518H40.9189L40.8929 59.196H42.8949C45.2349 59.196 47.0203 59.69 48.2509 60.678C49.4989 61.6487 50.1229 63.0613 50.1229 64.916V65.02ZM42.4529 66.996C44.1863 66.996 45.0529 66.3287 45.0529 64.994V64.89C45.0529 63.5207 44.1776 62.836 42.4269 62.836H40.8929V66.996H42.4529ZM56.6694 52.41H63.5594L69.4614 71H63.8194L62.8314 67.542H56.6694L55.6814 71H50.7154L56.6694 52.41ZM57.7094 63.876H61.7914L59.7634 56.726L57.7094 63.876ZM71.5953 52.41H76.9513V59.768L82.5413 52.41H88.1053L81.2933 61.042L88.4693 71H82.3073L76.9513 63.226V71H71.5953V52.41Z" fill="white"/>
</svg>
