<svg width="223" height="50" viewBox="0 0 223 50" fill="none" xmlns="http://www.w3.org/2000/svg">
<g clip-path="url(#clip0)">
<path id="svg-logo-text" d="M61.6697 20.8559C61.6639 20.1266 61.7968 19.4028 62.0612 18.7231C62.3141 18.0603 62.7159 17.4646 63.2356 16.9817C63.8183 16.4478 64.5088 16.045 65.2604 15.8006C66.1857 15.497 67.1553 15.3509 68.1289 15.3686C68.6284 15.3686 69.1548 15.3956 69.7083 15.4496C70.252 15.5032 70.7927 15.5843 71.3282 15.6926C71.8614 15.8006 72.3676 15.9356 72.8535 16.0841C73.3178 16.2233 73.7694 16.4017 74.2034 16.6173C74.4262 16.7185 74.5476 16.8265 74.5746 16.9277C74.5876 17.1171 74.5552 17.3068 74.4801 17.4812L73.8052 19.506C73.7175 19.7558 73.6297 19.9042 73.5352 19.938C73.3851 19.9797 73.2264 19.9797 73.0763 19.938C72.2326 19.6883 71.3889 19.479 70.552 19.317C69.774 19.1611 68.983 19.0798 68.1897 19.0741C67.596 19.0149 67.0006 19.168 66.5091 19.506C66.3549 19.6344 66.2313 19.7955 66.1472 19.9776C66.0632 20.1598 66.0208 20.3584 66.0231 20.5589C66.0174 20.7942 66.0732 21.0269 66.1851 21.2339C66.3179 21.4621 66.4973 21.6599 66.7115 21.8143C67.0161 22.0421 67.3442 22.2367 67.6902 22.3948C68.0952 22.5973 68.5947 22.8223 69.1886 23.0697C70.1065 23.4342 70.9502 23.7987 71.7264 24.1699C72.442 24.4958 73.1097 24.9182 73.7107 25.4253C74.2524 25.8799 74.6957 26.4403 75.0133 27.0721C75.3424 27.7819 75.504 28.5578 75.4858 29.34C75.4745 30.1829 75.2762 31.0127 74.9054 31.7698C74.5715 32.4601 74.0789 33.0615 73.4677 33.5246C72.8009 34.0171 72.0443 34.3748 71.2404 34.5775C70.3017 34.8207 69.3349 34.9387 68.3652 34.9285C67.7587 34.9293 67.1526 34.8978 66.5496 34.834C65.9188 34.7718 65.2923 34.6726 64.6732 34.537C64.0546 34.4027 63.4458 34.2268 62.8509 34.0106C62.2775 33.8044 61.7259 33.5421 61.204 33.2276C61.1434 33.198 61.0894 33.1564 61.0454 33.1054C61.0013 33.0544 60.968 32.9949 60.9475 32.9307C60.9288 32.7541 60.9616 32.576 61.042 32.4177L61.9599 30.2511C61.9818 30.1716 62.0194 30.0972 62.0704 30.0323C62.1214 29.9674 62.1848 29.9133 62.2569 29.8732C62.4147 29.8448 62.5774 29.8735 62.7159 29.9542C63.0736 30.1026 63.4718 30.2511 63.9038 30.4064C64.3357 30.5616 64.7812 30.6898 65.2537 30.8113C65.7261 30.9328 66.1851 31.0273 66.6576 31.1083C67.128 31.1887 67.6044 31.2293 68.0817 31.2298C68.5548 31.2398 69.0271 31.1853 69.4855 31.0678C69.8131 30.9816 70.1236 30.84 70.4035 30.6493C70.6206 30.5007 70.7894 30.292 70.8894 30.0486C70.9794 29.8209 71.0252 29.5781 71.0244 29.3332C71.0296 29.0822 70.9789 28.8332 70.876 28.6043C70.7555 28.364 70.5906 28.1487 70.39 27.9698C70.1127 27.7307 69.8038 27.5309 69.4721 27.3759C69.0806 27.1869 68.6014 26.9844 68.0277 26.7684C67.0693 26.4107 66.2054 26.0395 65.4292 25.6615C64.7072 25.3242 64.0275 24.9028 63.4043 24.4061C62.8751 23.9846 62.4386 23.4584 62.1219 22.8605C61.8138 22.2453 61.6609 21.564 61.6765 20.8762" fill="#868789"/>
<path d="M87.2839 34.227C87.2839 34.3079 87.1894 34.3822 86.987 34.4564C86.3269 34.6508 85.6482 34.7752 84.9621 34.8277C84.2917 34.8816 83.7247 34.9086 83.2613 34.9086C81.7089 34.9086 80.602 34.5847 79.9338 33.9232C79.5807 33.5315 79.3102 33.0726 79.1386 32.5739C78.9669 32.0752 78.8976 31.547 78.9348 31.021V23.3131H77.045C76.8493 23.3131 76.721 23.2659 76.667 23.1646C76.6089 23.0522 76.581 22.9266 76.5861 22.8002V21.3423C76.5741 21.2169 76.5975 21.0906 76.6536 20.9778C76.7565 20.8867 76.8826 20.826 77.018 20.8023L79.0429 20.3434L79.2318 17.8056C79.2306 17.636 79.2932 17.4721 79.4073 17.3466C79.5365 17.2402 79.6893 17.1662 79.8528 17.1306L82.3298 16.3139C82.3953 16.2958 82.4638 16.2913 82.5311 16.3006C82.5985 16.3099 82.6632 16.3328 82.7213 16.3679C82.7769 16.4242 82.8191 16.4922 82.8448 16.567C82.8705 16.6418 82.8791 16.7214 82.8698 16.7999V20.4244H85.8395C86.042 20.4244 86.1635 20.4648 86.204 20.5458C86.2553 20.6506 86.2786 20.7669 86.2715 20.8833V22.8002C86.2813 22.933 86.2629 23.0664 86.2175 23.1916C86.2175 23.2726 86.0555 23.3131 85.8395 23.3131H82.8698V30.2043C82.846 30.4034 82.869 30.6053 82.937 30.7939C83.005 30.9826 83.116 31.1527 83.2613 31.2909C83.6115 31.5116 84.0226 31.6156 84.4356 31.5879C84.5639 31.5879 84.7124 31.5879 84.8946 31.5879L85.4481 31.5339L86.0015 31.4799L86.4605 31.4259C86.7507 31.3719 86.9059 31.4597 86.9194 31.6959L87.2434 33.9435C87.2514 34.0468 87.2514 34.1506 87.2434 34.2539" fill="#868789"/>
<path d="M102.449 27.4497C102.449 29.8256 101.882 31.6681 100.742 32.964C99.601 34.2599 97.8798 34.9079 95.558 34.9079C93.2362 34.9079 91.5084 34.2329 90.4217 32.964C89.335 31.6951 88.8019 29.8458 88.8019 27.5037C88.786 26.4454 88.9456 25.3917 89.2743 24.3855C89.5508 23.5169 90.0112 22.7181 90.6242 22.0434C91.2208 21.4084 91.9487 20.9109 92.757 20.5856C93.6657 20.2285 94.6359 20.0542 95.612 20.0726C97.8618 20.0726 99.5672 20.7251 100.728 22.03C101.876 23.3393 102.449 25.1414 102.449 27.4295V27.4497ZM98.3995 27.5105C98.4026 26.9497 98.3575 26.3897 98.2645 25.8366C98.1934 25.3799 98.0378 24.9404 97.8056 24.5407C97.6042 24.1901 97.316 23.8973 96.9687 23.6903C96.583 23.4696 96.1439 23.3598 95.6998 23.3731C95.2792 23.3483 94.8597 23.4374 94.4855 23.631C94.1114 23.8246 93.7963 24.1156 93.5737 24.4732C93.0765 25.3761 92.8427 26.4003 92.8987 27.4295C92.8383 28.4954 93.0569 29.5585 93.5332 30.514C93.7531 30.8649 94.0652 31.1486 94.4353 31.3343C94.8055 31.52 95.2195 31.6004 95.6323 31.5669C96.0796 31.5783 96.522 31.4712 96.9147 31.2564C97.2709 31.043 97.5679 30.7436 97.7786 30.3857C98.0123 29.989 98.1766 29.5553 98.2645 29.1034C98.3685 28.5789 98.4183 28.0451 98.413 27.5105" fill="#868789"/>
<path d="M111.177 23.3121H110.408C110.05 23.3224 109.693 23.3607 109.341 23.4268V34.1044C109.358 34.2421 109.324 34.3811 109.247 34.4959C109.104 34.58 108.938 34.6134 108.774 34.5904H105.987C105.836 34.6044 105.685 34.5714 105.555 34.4959C105.503 34.4461 105.463 34.3846 105.44 34.3165C105.416 34.2484 105.409 34.1757 105.42 34.1044V22.5292C105.394 22.0272 105.506 21.5278 105.744 21.0848C105.908 20.877 106.111 20.7042 106.343 20.5767C106.575 20.4492 106.83 20.3695 107.094 20.3423C107.348 20.2975 107.605 20.2659 107.863 20.2478L108.923 20.1669L110.043 20.0994C110.414 20.0994 110.718 20.0994 111.001 20.0994C112.102 20.0812 113.201 20.2083 114.268 20.4773C115.111 20.6917 115.891 21.1035 116.543 21.6787C117.172 22.2724 117.637 23.0188 117.893 23.8453C118.213 24.8992 118.363 25.9974 118.338 27.0985V34.1517C118.355 34.2893 118.321 34.4284 118.244 34.5432C118.183 34.6107 118.028 34.6376 117.778 34.6376H114.984C114.833 34.6503 114.683 34.6174 114.552 34.5432C114.5 34.4934 114.46 34.4319 114.437 34.3638C114.413 34.2957 114.406 34.223 114.417 34.1517V26.8285C114.426 26.3116 114.376 25.7954 114.268 25.2897C114.186 24.8896 114.011 24.5148 113.755 24.1963C113.495 23.8793 113.148 23.6449 112.756 23.5213C112.246 23.3602 111.712 23.285 111.177 23.2986" fill="#868789"/>
<path d="M128.037 20.073C130.147 20.073 131.722 20.5995 132.762 21.6524C133.801 22.7053 134.328 24.215 134.341 26.1813C134.382 26.5206 134.355 26.8647 134.263 27.1936C134.17 27.5226 134.013 27.83 133.801 28.0981C133.6 28.2782 133.365 28.4164 133.11 28.5045C132.855 28.5926 132.585 28.6288 132.316 28.6111H125.418C125.421 29.1018 125.517 29.5875 125.702 30.042C125.849 30.3999 126.081 30.7171 126.377 30.9666C126.675 31.2001 127.02 31.3659 127.389 31.4526C127.804 31.5441 128.227 31.5894 128.651 31.5876C129.188 31.5835 129.722 31.5201 130.244 31.3986C130.761 31.2783 131.266 31.1158 131.756 30.9126C131.895 30.8485 132.05 30.8251 132.202 30.8452C132.308 30.8976 132.391 30.9896 132.431 31.1016L133.295 33.0455C133.33 33.1014 133.351 33.1644 133.358 33.2298C133.365 33.2953 133.357 33.3614 133.335 33.4234C133.27 33.5395 133.171 33.6334 133.052 33.6934C132.342 34.1434 131.555 34.4591 130.73 34.6248C129.921 34.8056 129.095 34.9006 128.267 34.9083C125.911 34.9083 124.163 34.3279 123.029 33.1535C121.895 31.9791 121.321 30.1297 121.321 27.5852C121.305 26.5086 121.467 25.4367 121.801 24.4129C122.08 23.5376 122.54 22.7305 123.151 22.0439C123.732 21.4 124.452 20.8969 125.256 20.5725C126.138 20.2288 127.078 20.0592 128.024 20.073H128.037ZM128.105 23.3128C127.764 23.3034 127.425 23.3694 127.112 23.5059C126.799 23.6423 126.521 23.846 126.296 24.1025C125.809 24.6692 125.524 25.3813 125.486 26.1273H130.541C130.544 25.7548 130.504 25.3833 130.42 25.0204C130.349 24.7048 130.216 24.4065 130.028 24.143C129.837 23.8919 129.587 23.6924 129.299 23.5625C128.923 23.4002 128.514 23.3241 128.105 23.3398" fill="#868789"/>
<path d="M160.698 34.5028C160.539 34.5952 160.354 34.6332 160.171 34.6108H157.337C157.165 34.629 156.993 34.586 156.851 34.4893C156.798 34.4289 156.759 34.3579 156.735 34.2811C156.712 34.2043 156.705 34.1234 156.716 34.0439V26.4777H149.392V34.0439C149.404 34.1246 149.399 34.2068 149.378 34.2856C149.357 34.3644 149.321 34.4382 149.271 34.5028C149.109 34.5949 148.922 34.6327 148.738 34.6108H145.876C145.709 34.6242 145.543 34.5814 145.404 34.4893C145.347 34.4308 145.305 34.3604 145.279 34.2833C145.253 34.2063 145.245 34.1245 145.255 34.0439V16.2456C145.245 16.165 145.253 16.0832 145.279 16.0061C145.305 15.9291 145.347 15.8587 145.404 15.8001C145.543 15.7081 145.709 15.6653 145.876 15.6786H148.738C148.922 15.6599 149.108 15.6976 149.271 15.7866C149.369 15.9181 149.413 16.0827 149.392 16.2456V22.995H156.716V16.2456C156.705 16.166 156.712 16.0852 156.735 16.0084C156.759 15.9316 156.798 15.8606 156.851 15.8001C156.993 15.7035 157.165 15.6605 157.337 15.6786H160.171C160.354 15.6596 160.538 15.6973 160.698 15.7866C160.796 15.9181 160.84 16.0827 160.819 16.2456V34.0304C160.83 34.1111 160.826 34.1933 160.805 34.2721C160.784 34.3509 160.747 34.4247 160.698 34.4893" fill="#868789"/>
<path d="M177.713 27.4497C177.713 29.8256 177.146 31.6681 176.012 32.964C174.878 34.2599 173.144 34.9079 170.822 34.9079C168.5 34.9079 166.772 34.2329 165.685 32.964C164.599 31.6951 164.066 29.8458 164.066 27.5037C164.05 26.4454 164.209 25.3917 164.538 24.3855C164.814 23.5169 165.275 22.7181 165.888 22.0434C166.485 21.4084 167.212 20.9109 168.021 20.5856C168.929 20.2285 169.9 20.0542 170.876 20.0726C173.126 20.0726 174.833 20.7251 175.999 22.03C177.139 23.3393 177.713 25.1414 177.713 27.4295V27.4497ZM173.63 27.5105C173.633 26.9497 173.587 26.3897 173.495 25.8366C173.423 25.3799 173.268 24.9404 173.036 24.5407C172.834 24.1901 172.546 23.8973 172.199 23.6903C171.813 23.4696 171.374 23.3598 170.93 23.3731C170.509 23.349 170.09 23.4384 169.716 23.632C169.342 23.8255 169.027 24.1161 168.804 24.4732C168.306 25.3761 168.073 26.4003 168.129 27.4295C168.068 28.4954 168.287 29.5585 168.763 30.514C168.984 30.8644 169.296 31.1477 169.666 31.3333C170.036 31.5189 170.45 31.5997 170.862 31.5669C171.31 31.5783 171.752 31.4712 172.145 31.2564C172.501 31.043 172.798 30.7436 173.009 30.3857C173.242 29.989 173.407 29.5553 173.495 29.1034C173.599 28.5789 173.648 28.0451 173.643 27.5105" fill="#868789"/>
<path d="M187.621 31.6951H188.391C188.728 31.6951 189.066 31.6411 189.464 31.5871V20.9094C189.449 20.7667 189.485 20.6233 189.565 20.5045C189.626 20.4302 189.781 20.3965 190.038 20.3965H192.819C193.197 20.3965 193.386 20.5652 193.386 20.9094V32.4442C193.413 32.9557 193.286 33.4636 193.021 33.9021C192.699 34.3137 192.229 34.5846 191.712 34.6581C191.496 34.6986 191.226 34.7323 190.902 34.766C190.578 34.7998 190.227 34.8335 189.862 34.8605C189.498 34.8875 189.127 34.9078 188.762 34.9145H187.817C186.703 34.9384 185.59 34.8112 184.51 34.5366C183.678 34.3293 182.913 33.9108 182.289 33.3217C181.698 32.7162 181.275 31.9672 181.061 31.1483C180.789 30.0836 180.662 28.9871 180.683 27.8884V20.9094C180.671 20.7679 180.704 20.6262 180.778 20.5045C180.838 20.4302 181 20.3965 181.25 20.3965H184.038C184.416 20.3965 184.605 20.5652 184.605 20.9094V28.1516C184.598 28.6711 184.634 29.1904 184.712 29.704C184.768 30.1038 184.915 30.4852 185.144 30.8176C185.378 31.1306 185.7 31.3659 186.069 31.4926C186.571 31.6505 187.096 31.7235 187.621 31.7086" fill="#868789"/>
<path d="M207.599 30.5611C207.64 31.1927 207.519 31.8242 207.247 32.3959C206.975 32.9675 206.562 33.4604 206.047 33.8278C204.84 34.5946 203.426 34.9716 201.997 34.9077C201.004 34.9028 200.014 34.7988 199.041 34.5972C198.075 34.4177 197.146 34.0754 196.294 33.5848C196.177 33.5238 196.087 33.4233 196.037 33.3013C196.02 33.1542 196.056 33.0058 196.139 32.8829L196.922 31.02C196.97 30.869 197.071 30.74 197.205 30.6556C197.28 30.6345 197.358 30.6297 197.435 30.6413C197.512 30.6529 197.585 30.6808 197.651 30.7231C197.934 30.8445 198.258 30.966 198.622 31.0875C198.98 31.2023 199.358 31.3035 199.743 31.398C200.128 31.4925 200.506 31.56 200.863 31.614C201.185 31.6644 201.51 31.6914 201.835 31.695C202.31 31.735 202.785 31.6163 203.185 31.3575C203.309 31.2533 203.408 31.123 203.476 30.976C203.543 30.829 203.578 30.6689 203.577 30.5071C203.57 30.3187 203.516 30.1351 203.419 29.9733C203.322 29.8116 203.186 29.6771 203.023 29.5824C202.419 29.2206 201.779 28.9221 201.113 28.6915C200.461 28.4537 199.825 28.1742 199.21 27.8545C198.711 27.5999 198.244 27.2872 197.819 26.9231C197.441 26.6049 197.141 26.2051 196.939 25.7539C196.738 25.3026 196.642 24.8116 196.658 24.3178C196.654 23.746 196.764 23.1791 196.982 22.6507C197.198 22.1316 197.53 21.6695 197.954 21.3008C198.434 20.8955 198.989 20.5882 199.588 20.3964C200.343 20.1578 201.131 20.0439 201.923 20.0589C202.754 20.0595 203.583 20.1363 204.4 20.2884C205.184 20.423 205.95 20.6495 206.681 20.9634C206.875 21.0579 206.983 21.1524 207.005 21.2468C207.016 21.4085 206.989 21.5706 206.924 21.7193L206.249 23.4472C206.173 23.6496 206.092 23.7644 206.006 23.7914C205.859 23.8089 205.709 23.7856 205.574 23.7239C204.899 23.5214 204.292 23.3729 203.739 23.2582C203.167 23.1492 202.586 23.0949 202.004 23.0962C201.815 23.079 201.624 23.1 201.443 23.158C201.262 23.216 201.095 23.3097 200.951 23.4337C200.761 23.6094 200.646 23.8507 200.627 24.1086C200.625 24.2898 200.669 24.4686 200.755 24.628C200.842 24.7875 200.967 24.9223 201.12 25.0198C201.669 25.3573 202.255 25.6292 202.868 25.8297C203.543 26.0794 204.123 26.3359 204.704 26.5991C205.241 26.8385 205.745 27.1471 206.202 27.5171C206.622 27.8616 206.967 28.2889 207.215 28.7725C207.479 29.321 207.609 29.9251 207.593 30.5341" fill="#868789"/>
<path d="M216.495 20.073C218.601 20.073 220.176 20.5995 221.22 21.6524C222.264 22.7053 222.79 24.2149 222.799 26.1813C222.84 26.5206 222.813 26.8647 222.72 27.1936C222.628 27.5226 222.471 27.83 222.259 28.0981C222.058 28.2782 221.823 28.4164 221.568 28.5045C221.313 28.5926 221.043 28.6288 220.774 28.6111H213.87C213.872 29.1018 213.968 29.5875 214.153 30.042C214.303 30.3985 214.534 30.7152 214.828 30.9666C215.126 31.2001 215.472 31.3659 215.84 31.4526C216.255 31.5441 216.678 31.5893 217.102 31.5876C217.639 31.5835 218.173 31.5201 218.695 31.3986C219.212 31.2783 219.717 31.1158 220.207 30.9126C220.346 30.8485 220.501 30.8251 220.653 30.8451C220.76 30.8976 220.842 30.9896 220.882 31.1016L221.746 33.0455C221.781 33.1014 221.802 33.1644 221.809 33.2298C221.816 33.2953 221.809 33.3614 221.787 33.4234C221.721 33.5394 221.622 33.6334 221.503 33.6934C220.793 34.1446 220.006 34.4604 219.181 34.6248C218.375 34.8052 217.551 34.9002 216.725 34.9083C214.362 34.9083 212.614 34.3278 211.48 33.1534C210.346 31.979 209.773 30.1297 209.773 27.5852C209.756 26.5086 209.918 25.4367 210.252 24.4129C210.531 23.5376 210.991 22.7305 211.602 22.0439C212.184 21.4014 212.904 20.8985 213.708 20.5725C214.591 20.2289 215.533 20.0593 216.482 20.073H216.495ZM216.563 23.3128C216.22 23.3024 215.88 23.3679 215.566 23.5044C215.252 23.6409 214.973 23.8451 214.747 24.1024C214.26 24.6692 213.975 25.3813 213.937 26.1273H218.992C218.996 25.7548 218.955 25.3833 218.871 25.0204C218.8 24.7048 218.667 24.4064 218.479 24.1429C218.288 23.8919 218.038 23.6923 217.75 23.5625C217.376 23.4008 216.97 23.3247 216.563 23.3398" fill="#868789"/>
<path d="M48.4876 2.7736e-05H37.783C37.2017 -0.00284109 36.6414 0.216936 36.2171 0.614229L28.0368 8.29509C27.8526 8.46437 27.7076 8.67175 27.6118 8.90279C27.5159 9.13384 27.4716 9.38298 27.4819 9.6329C27.4922 9.88281 27.5568 10.1275 27.6713 10.3499C27.7858 10.5723 27.9473 10.767 28.1448 10.9206L38.3095 18.9795C38.7109 19.3032 39.2111 19.4794 39.7268 19.4789C40.0483 19.4794 40.366 19.4103 40.6582 19.2764L48.6766 15.6992C49.0775 15.5172 49.4178 15.2239 49.6571 14.8542C49.8963 14.4845 50.0245 14.054 50.0265 13.6137V1.51865C50.0265 1.11589 49.8665 0.729621 49.5817 0.444824C49.2969 0.160027 48.9106 2.7736e-05 48.5078 2.7736e-05" fill="#C0AA82"/>
<path d="M32.1817 0.816723C32.0928 0.57559 31.9317 0.367766 31.7203 0.221606C31.5089 0.075445 31.2576 -0.00193707 31.0006 3.68449e-05H6.17612C5.93076 -0.000401912 5.6911 0.073885 5.48899 0.213006C5.28687 0.352127 5.13189 0.549493 5.0447 0.778844C4.9575 1.0082 4.94218 1.25866 5.00082 1.49692C5.05946 1.73518 5.18926 1.94993 5.37294 2.11261L17.1237 12.6012C17.4505 12.895 17.8727 13.0604 18.3121 13.0666C18.7514 13.0728 19.1781 12.9194 19.513 12.635L31.8105 2.20711C32.0083 2.04197 32.1501 1.8197 32.2165 1.57077C32.283 1.32185 32.2709 1.05846 32.1817 0.816723" fill="#8C7F72"/>
<path d="M7.92372 6.08112L2.52417 1.5455C2.26556 1.32719 1.93794 1.20762 1.5995 1.20802C1.40894 1.20714 1.22005 1.24379 1.04365 1.31589C0.867256 1.388 0.706769 1.49414 0.571392 1.62827C0.436015 1.76239 0.328386 1.92187 0.254641 2.09759C0.180897 2.27332 0.142486 2.46184 0.141602 2.6524V11.6089C0.144067 11.8427 0.211765 12.0711 0.337032 12.2684C0.462299 12.4658 0.640152 12.6242 0.850614 12.726C1.06108 12.8277 1.29576 12.8686 1.52824 12.8442C1.76071 12.8197 1.98174 12.7309 2.16643 12.5876L7.90345 8.0182C8.05043 7.90538 8.16951 7.76026 8.25143 7.59407C8.33335 7.42788 8.37594 7.24507 8.37592 7.05979C8.37975 6.8737 8.34172 6.68913 8.26461 6.51974C8.18751 6.35034 8.07332 6.20044 7.93048 6.08112" fill="#A1B5BD"/>
<path d="M49.0014 38.0195C48.7794 38.021 48.5639 38.0944 48.3872 38.2288L40.2069 44.5935C40.0619 44.7046 39.9443 44.8476 39.8636 45.0115C39.7828 45.1754 39.7409 45.3557 39.7412 45.5384V48.6432C39.7412 48.9618 39.8678 49.2674 40.0931 49.4927C40.3184 49.718 40.624 49.8446 40.9426 49.8446H48.4952C48.8956 49.8428 49.2792 49.6829 49.5623 49.3998C49.8454 49.1166 50.0053 48.7331 50.0071 48.3327V39.0252C50.0071 38.7585 49.9011 38.5027 49.7125 38.3141C49.5239 38.1255 49.2681 38.0195 49.0014 38.0195" fill="#A1B5BD"/>
<path d="M48.8462 18.0146C48.6659 18.0147 48.4881 18.0563 48.3265 18.1361L40.9831 21.7673C40.6103 21.9495 40.2962 22.2327 40.0766 22.5848C39.857 22.9368 39.7408 23.3435 39.7412 23.7584V40.8413C39.743 41.1301 39.859 41.4064 40.0638 41.61C40.2687 41.8136 40.5458 41.9279 40.8346 41.9279C41.0816 41.9248 41.32 41.8366 41.5096 41.6782L49.1566 35.4687C49.4203 35.2541 49.6329 34.9834 49.7788 34.6763C49.9248 34.3693 50.0004 34.0336 50.0003 33.6936V19.1756C50.0003 18.8677 49.8781 18.5724 49.6603 18.3547C49.4426 18.137 49.1473 18.0146 48.8394 18.0146" fill="#9F8574"/>
<path d="M36.3254 40.3954H14.3695C14.0148 40.3989 13.6673 40.4955 13.3617 40.6756C13.056 40.8556 12.8031 41.1128 12.6281 41.4213L9.13193 47.6916C9.00696 47.9148 8.94266 48.1668 8.9454 48.4227C8.94813 48.6785 9.01779 48.9291 9.1475 49.1496C9.27721 49.3701 9.46243 49.5528 9.68469 49.6795C9.90695 49.8061 10.1585 49.8724 10.4143 49.8716H36.3254C36.6834 49.8716 37.0268 49.7294 37.2799 49.4763C37.5331 49.2231 37.6753 48.8798 37.6753 48.5218V41.7386C37.6753 41.3805 37.5331 41.0372 37.2799 40.784C37.0268 40.5309 36.6834 40.3887 36.3254 40.3887" fill="#8C7F72"/>
<path d="M15.5103 13.1013L11.1097 9.1934C10.8314 8.94962 10.474 8.81529 10.104 8.81543C9.75573 8.81722 9.41818 8.93608 9.14561 9.1529L0.897775 15.9023C0.668846 16.0913 0.484304 16.3284 0.357169 16.5966C0.230034 16.8649 0.16344 17.1578 0.162109 17.4547V21.8216C0.162757 22.1637 0.255959 22.4993 0.431815 22.7928C0.607671 23.0863 0.85962 23.3268 1.16101 23.4887L9.03088 27.7679C9.19926 27.8579 9.38667 27.9065 9.57758 27.9096C9.87994 27.9071 10.1698 27.7887 10.3875 27.5789C10.4987 27.4711 10.5871 27.3421 10.6474 27.1995C10.7077 27.0568 10.7386 26.9035 10.7385 26.7487V19.1556C10.7382 19.0376 10.7655 18.9213 10.8183 18.8158C10.871 18.7103 10.9477 18.6187 11.0422 18.5481L15.4091 15.3084C15.5791 15.1825 15.7191 15.0203 15.8186 14.8336C15.9181 14.6469 15.9748 14.4403 15.9845 14.2289C15.9942 14.0175 15.9567 13.8067 15.8747 13.6116C15.7926 13.4166 15.6682 13.2422 15.5103 13.1013Z" fill="#9F8574"/>
<path d="M10.4616 30.5282L2.09907 25.952C1.88329 25.8337 1.64041 25.7735 1.39434 25.7775C1.14826 25.7815 0.907438 25.8495 0.695624 25.9749C0.483809 26.1002 0.308304 26.2785 0.186326 26.4922C0.0643489 26.706 0.000136876 26.9478 0 27.1939V48.4074C0 48.8299 0.167816 49.235 0.466537 49.5338C0.765257 49.8325 1.1704 50.0003 1.59286 50.0003H4.52209C4.90107 50.0001 5.27336 49.9003 5.60153 49.7107C5.9297 49.5212 6.20221 49.2486 6.3917 48.9204L10.7856 41.3205C11.0924 40.7891 11.2531 40.186 11.2513 39.5724V31.8241C11.2525 31.5594 11.1822 31.2994 11.048 31.0713C10.9138 30.8433 10.7205 30.6556 10.4886 30.5282" fill="#C0AA82"/>
<path d="M36.4336 20.0664L26.0934 12.1966C25.8018 11.9765 25.4464 11.8574 25.081 11.8574C24.7156 11.8574 24.3602 11.9765 24.0686 12.1966L13.7622 20.0799C13.4892 20.2899 13.2681 20.5597 13.116 20.8687C12.9639 21.1776 12.8847 21.5174 12.8848 21.8618V37.3113C12.8848 37.6227 13.0085 37.9214 13.2287 38.1417C13.449 38.3619 13.7477 38.4857 14.0592 38.4857H20.9773C21.0789 38.4857 21.1796 38.4655 21.2734 38.4264C21.3672 38.3874 21.4523 38.3301 21.5238 38.2579C21.5954 38.1857 21.6519 38.1001 21.6902 38.006C21.7284 37.9119 21.7477 37.8111 21.7468 37.7095V30.2851C21.7468 30.0506 21.84 29.8257 22.0058 29.6599C22.1716 29.4941 22.3965 29.4009 22.631 29.4009H27.5041C27.7386 29.4009 27.9634 29.4941 28.1293 29.6599C28.2951 29.8257 28.3882 30.0506 28.3882 30.2851V37.7095C28.3873 37.8117 28.4068 37.913 28.4455 38.0076C28.4842 38.1021 28.5413 38.1881 28.6136 38.2603C28.6858 38.3326 28.7717 38.3897 28.8663 38.4284C28.9609 38.4671 29.0622 38.4866 29.1644 38.4857H36.1096C36.2635 38.4857 36.4159 38.4552 36.558 38.3961C36.7001 38.337 36.8291 38.2504 36.9376 38.1413C37.0461 38.0321 37.132 37.9026 37.1903 37.7602C37.2486 37.6177 37.2781 37.4652 37.2772 37.3113V21.8483C37.2773 21.5039 37.1982 21.1641 37.0461 20.8552C36.8939 20.5462 36.6728 20.2764 36.3998 20.0664" fill="#868789"/>
</g>
<defs>
<clipPath id="clip0">
<rect width="222.818" height="50" fill="white"/>
</clipPath>
</defs>
</svg>
