<svg width="41" height="30" viewBox="0 0 41 30" fill="none" xmlns="http://www.w3.org/2000/svg">
<path d="M40.5882 22.0482C40.5882 24.4578 39.728 26.3855 38.0075 27.8313C36.3652 29.2771 34.2928 30 31.7902 30C28.7402 30 26.3159 29.0361 24.5172 27.1084C22.7185 25.1807 21.8191 22.6104 21.8191 19.3976C21.8191 16.0241 22.3274 13.2129 23.3441 10.9639C24.439 8.63454 25.7293 6.74699 27.2152 5.30121C28.7011 3.7751 30.2652 2.61045 31.9075 1.80723C33.5498 1.00402 34.9575 0.401606 36.1306 0L40.0017 6.86747C38.2812 7.51004 36.8344 8.51405 35.6613 9.87952C34.5665 11.1647 33.9408 12.6104 33.7844 14.2169C35.4267 14.1365 36.9517 14.8193 38.3594 16.2651C39.8453 17.7108 40.5882 19.6386 40.5882 22.0482ZM18.7691 22.0482C18.7691 24.4578 17.9089 26.3855 16.1884 27.8313C14.5461 29.2771 12.4736 30 9.9711 30C6.92111 30 4.49677 29.0361 2.69806 27.1084C0.899353 25.1807 0 22.6104 0 19.3976C0 16.0241 0.50833 13.2129 1.52499 10.9639C2.61986 8.63454 3.91023 6.74699 5.39612 5.30121C6.88201 3.7751 8.44611 2.61045 10.0884 1.80723C11.7307 1.00402 13.1384 0.401606 14.3115 0L18.1826 6.86747C16.4621 7.51004 15.0153 8.51405 13.8422 9.87952C12.7474 11.1647 12.1217 12.6104 11.9653 14.2169C13.6076 14.1365 15.1326 14.8193 16.5403 16.2651C18.0262 17.7108 18.7691 19.6386 18.7691 22.0482Z" fill="white"/>
</svg>
