<svg width="20" height="18" viewBox="0 0 20 18" fill="none" xmlns="http://www.w3.org/2000/svg">
<path fill-rule="evenodd" clip-rule="evenodd" d="M7.44856 2C4.4394 2 2 4.4394 2 7.44856C2 10.4577 4.4394 12.8971 7.44856 12.8971C10.4577 12.8971 12.8971 10.4577 12.8971 7.44856C12.8971 4.4394 10.4577 2 7.44856 2ZM0 7.44856C0 3.33483 3.33483 0 7.44856 0C11.5623 0 14.8971 3.33483 14.8971 7.44856C14.8971 11.5623 11.5623 14.8971 7.44856 14.8971C3.33483 14.8971 0 11.5623 0 7.44856ZM17.7568 17.7526L13.0669 13.6489L14.384 12.1438L19.0738 16.2474L17.7568 17.7526Z" fill="black"/>
</svg>
