<svg width="19" height="16" viewBox="0 0 19 16" fill="none" xmlns="http://www.w3.org/2000/svg">
<path d="M18.9351 1.8862C18.2527 2.22906 17.5704 2.40049 16.7174 2.57192C17.5704 2.05763 18.0821 1.37192 18.4233 0.343345C17.741 0.857631 16.888 1.20049 16.0351 1.37192C15.1822 0.514774 14.1587 0.000488281 13.1351 0.000488281C10.9175 0.000488281 9.21165 1.71477 9.21165 3.94335C9.21165 4.2862 9.21165 4.62906 9.38224 4.80049C6.1411 4.62906 3.24114 3.0862 1.36469 0.686203C1.02352 1.37192 0.852931 1.8862 0.852931 2.74335C0.852931 4.11477 1.53528 5.31477 2.55879 6.00049C1.87645 6.00049 1.36469 5.82906 0.852931 5.4862C0.852931 7.37192 2.21762 8.91477 3.92348 9.25763C3.58231 9.42906 3.24114 9.42906 2.89996 9.42906C2.72938 9.42906 2.38821 9.42906 2.21762 9.42906C2.55879 10.9719 4.09407 12.0005 5.79993 12.1719C4.43524 13.2005 2.72938 13.7148 0.852931 13.7148C0.682345 13.7148 0.341172 13.7148 0 13.7148C1.70586 14.7433 3.7529 15.4291 5.97052 15.4291C13.1351 15.4291 17.0586 9.42906 17.0586 4.2862C17.0586 4.11477 17.0586 3.94335 17.0586 3.77192C17.741 3.25763 18.4233 2.57192 18.9351 1.8862Z" fill="white"/>
</svg>
