<svg width="26" height="16" viewBox="0 0 26 16" fill="none" xmlns="http://www.w3.org/2000/svg">
<path fill-rule="evenodd" clip-rule="evenodd" d="M22.18 9.89117C22.9134 10.6245 23.8912 11.6024 24.6246 12.3358C24.869 12.8247 25.358 13.0691 25.6024 13.5581C25.8469 14.2914 25.6024 15.0248 25.1135 15.0248H21.4466C20.4688 15.0248 19.7354 14.7803 19.002 14.047C18.5131 13.8025 18.0242 13.0691 17.5353 12.5802C17.2908 12.3358 17.0463 12.0913 16.8019 12.0913C16.313 11.6024 15.8241 11.8468 15.5796 12.3358C15.3351 12.8247 15.3351 13.5581 15.3351 14.047C15.3351 15.0248 15.0907 15.0248 14.1128 15.2693C12.1572 15.2693 10.446 15.0248 8.73475 14.047C7.26799 13.3136 6.29016 12.0913 5.31232 10.6245C3.35665 8.17996 1.88989 5.24645 0.6676 2.31294C0.423141 1.57957 0.6676 1.33511 1.40098 1.33511C2.62327 1.33511 3.84557 1.33511 5.06786 1.33511C5.55678 1.33511 5.80124 1.57957 6.0457 2.06849C6.77907 3.7797 7.51245 5.24645 8.49029 6.71321C8.73475 7.20212 8.9792 7.44658 9.46812 7.69104C9.71258 7.9355 9.95704 7.9355 10.2015 7.44658C10.2015 6.95766 10.446 6.71321 10.446 6.46875C10.446 5.24645 10.446 4.26862 10.446 3.04632C10.446 2.31294 9.95704 1.82403 9.22366 1.82403C8.9792 1.82403 8.9792 1.57957 8.9792 1.33511C9.22366 1.09065 9.46812 0.846191 10.2015 0.846191H14.3573C14.8462 1.09065 15.0907 1.33511 15.0907 1.82403V6.46875C15.0907 6.71321 15.3351 7.44658 15.5796 7.69104C16.0685 7.69104 16.313 7.44658 16.313 7.20212C17.2908 6.22429 18.0242 5.00199 18.7576 3.53524C19.002 3.04632 19.2465 2.31294 19.4909 1.82403C19.9799 1.57957 20.2243 1.33511 20.7132 1.33511H24.6246H24.869C25.6024 1.33511 25.8469 1.82403 25.6024 2.31294C25.358 3.29078 24.6246 4.26862 23.8912 5.00199C23.4023 6.22429 22.6689 6.95766 21.9355 7.9355C21.4466 8.91334 21.4466 9.15779 22.18 9.89117Z" fill="white"/>
</svg>
