<svg width="27" height="19" viewBox="0 0 27 19" fill="none" xmlns="http://www.w3.org/2000/svg">
<path d="M25.067 2.43372C24.3563 1.17065 23.5841 0.940536 22.0193 0.848491C20.4494 0.746218 16.5068 0.700195 13.096 0.700195C9.675 0.700195 5.72727 0.746218 4.1625 0.848491C2.59773 0.940536 1.82557 1.17065 1.10966 2.43372C0.378409 3.69679 0 5.87008 0 9.69508C0 9.7002 0 9.7002 0 9.7002C0 9.70531 0 9.70531 0 9.70531V9.71042C0 13.5201 0.378409 15.7087 1.10966 16.9564C1.82557 18.2195 2.59773 18.4496 4.1625 18.557C5.73239 18.6491 9.675 18.7002 13.096 18.7002C16.5119 18.7002 20.4545 18.6439 22.0244 18.557C23.5943 18.4496 24.3665 18.2195 25.0722 16.9564C25.8085 15.7087 26.1818 13.5201 26.1818 9.71042C26.1818 9.71042 26.1818 9.70531 26.1818 9.7002V9.69508C26.1818 5.87008 25.8085 3.69679 25.067 2.43372ZM9.81818 14.6093V4.7911L18 9.7002L9.81818 14.6093Z" fill="white"/>
</svg>
